<?xml version="1.0" encoding="UTF-8" standalone="no"?>
<!-- Created with Inkscape (http://www.inkscape.org/) -->

<svg
   width="174.95576mm"
   height="26.789062mm"
   viewBox="0 0 174.95576 26.789062"
   version="1.1"
   id="svg1"
   inkscape:version="1.4.3 (0d15f75042, 2025-12-25)"
   sodipodi:docname="branding.svg"
   xmlns:inkscape="http://www.inkscape.org/namespaces/inkscape"
   xmlns:sodipodi="http://sodipodi.sourceforge.net/DTD/sodipodi-0.dtd"
   xmlns="http://www.w3.org/2000/svg"
   xmlns:svg="http://www.w3.org/2000/svg">
  <sodipodi:namedview
     id="namedview1"
     pagecolor="#ffffff"
     bordercolor="#000000"
     borderopacity="0.25"
     inkscape:showpageshadow="2"
     inkscape:pageopacity="0.0"
     inkscape:pagecheckerboard="true"
     inkscape:deskcolor="#d1d1d1"
     inkscape:document-units="mm"
     inkscape:zoom="1.2708912"
     inkscape:cx="350.14799"
     inkscape:cy="140.0592"
     inkscape:window-width="1536"
     inkscape:window-height="792"
     inkscape:window-x="0"
     inkscape:window-y="0"
     inkscape:window-maximized="1"
     inkscape:current-layer="layer1" />
  <defs
     id="defs1" />
  <g
     inkscape:label="Layer 1"
     inkscape:groupmode="layer"
     id="layer1"
     transform="translate(-11.581554,-6.4491581)">
    <g
       id="text1"
       style="font-size:50.8px;font-family:'Teleindicadores 1';-inkscape-font-specification:'Teleindicadores 1, ';letter-spacing:0px;word-spacing:0px;fill:#ffffff;stroke-width:0.389001"
       aria-label="subte.cc">
      <path
         style="stroke-width:0.389"
         d="m 12.028039,20.885486 q -0.446485,-0.446484 -0.446485,-1.041797 0,-0.595312 0.446485,-1.041797 0.446484,-0.446484 1.041797,-0.446484 0.595312,0 1.041796,0.446484 0.446485,0.446485 0.446485,1.041797 0,0.595313 -0.446485,1.041797 -0.446484,0.446484 -1.041796,0.446484 -0.595313,0 -1.041797,-0.446484 z m 15.875,-3.96875 q -0.446485,-0.446484 -0.446485,-1.041797 0,-0.595312 0.446485,-1.041797 0.446484,-0.446484 1.041796,-0.446484 0.595313,0 1.041797,0.446484 0.446485,0.446485 0.446485,1.041797 0,0.595313 -0.446485,1.041797 -0.446484,0.446484 -1.041797,0.446484 -0.595312,0 -1.041796,-0.446484 z m -3.96875,0 q -0.446485,-0.446484 -0.446485,-1.041797 0,-0.595312 0.446485,-1.041797 0.446484,-0.446484 1.041796,-0.446484 0.595313,0 1.041797,0.446484 0.446485,0.446485 0.446485,1.041797 0,0.595313 -0.446485,1.041797 -0.446484,0.446484 -1.041797,0.446484 -0.595312,0 -1.041796,-0.446484 z m -3.96875,0 q -0.446485,-0.446484 -0.446485,-1.041797 0,-0.595312 0.446485,-1.041797 0.446484,-0.446484 1.041797,-0.446484 0.595312,0 1.041796,0.446484 0.446485,0.446485 0.446485,1.041797 0,0.595313 -0.446485,1.041797 -0.446484,0.446484 -1.041796,0.446484 -0.595313,0 -1.041797,-0.446484 z m -3.96875,0 q -0.446485,-0.446484 -0.446485,-1.041797 0,-0.595312 0.446485,-1.041797 0.446484,-0.446484 1.041797,-0.446484 0.595312,0 1.041796,0.446484 0.446485,0.446485 0.446485,1.041797 0,0.595313 -0.446485,1.041797 -0.446484,0.446484 -1.041796,0.446484 -0.595313,0 -1.041797,-0.446484 z m 7.9375,7.9375 q -0.446485,-0.446484 -0.446485,-1.041797 0,-0.595312 0.446485,-1.041797 0.446484,-0.446484 1.041796,-0.446484 0.595313,0 1.041797,0.446484 0.446485,0.446485 0.446485,1.041797 0,0.595313 -0.446485,1.041797 -0.446484,0.446484 -1.041797,0.446484 -0.595312,0 -1.041796,-0.446484 z m -3.96875,0 q -0.446485,-0.446484 -0.446485,-1.041797 0,-0.595312 0.446485,-1.041797 0.446484,-0.446484 1.041797,-0.446484 0.595312,0 1.041796,0.446484 0.446485,0.446485 0.446485,1.041797 0,0.595313 -0.446485,1.041797 -0.446484,0.446484 -1.041796,0.446484 -0.595313,0 -1.041797,-0.446484 z m -3.96875,0 q -0.446485,-0.446484 -0.446485,-1.041797 0,-0.595312 0.446485,-1.041797 0.446484,-0.446484 1.041797,-0.446484 0.595312,0 1.041796,0.446484 0.446485,0.446485 0.446485,1.041797 0,0.595313 -0.446485,1.041797 -0.446484,0.446484 -1.041796,0.446484 -0.595313,0 -1.041797,-0.446484 z m 11.90625,3.96875 q -0.446485,-0.446484 -0.446485,-1.041797 0,-0.595312 0.446485,-1.041797 0.446484,-0.446484 1.041796,-0.446484 0.595313,0 1.041797,0.446484 0.446485,0.446485 0.446485,1.041797 0,0.595313 -0.446485,1.041797 -0.446484,0.446484 -1.041797,0.446484 -0.595312,0 -1.041796,-0.446484 z m -3.96875,3.96875 q -0.446485,-0.446485 -0.446485,-1.041797 0,-0.595312 0.446485,-1.041797 0.446484,-0.446484 1.041796,-0.446484 0.595313,0 1.041797,0.446484 0.446485,0.446485 0.446485,1.041797 0,0.595312 -0.446485,1.041797 -0.446484,0.446484 -1.041797,0.446484 -0.595312,0 -1.041796,-0.446484 z m -3.96875,0 q -0.446485,-0.446485 -0.446485,-1.041797 0,-0.595312 0.446485,-1.041797 0.446484,-0.446484 1.041797,-0.446484 0.595312,0 1.041796,0.446484 0.446485,0.446485 0.446485,1.041797 0,0.595312 -0.446485,1.041797 -0.446484,0.446484 -1.041796,0.446484 -0.595313,0 -1.041797,-0.446484 z m -3.96875,0 q -0.446485,-0.446485 -0.446485,-1.041797 0,-0.595312 0.446485,-1.041797 0.446484,-0.446484 1.041797,-0.446484 0.595312,0 1.041796,0.446484 0.446485,0.446485 0.446485,1.041797 0,0.595312 -0.446485,1.041797 -0.446484,0.446484 -1.041796,0.446484 -0.595313,0 -1.041797,-0.446484 z m -3.96875,0 q -0.446485,-0.446485 -0.446485,-1.041797 0,-0.595312 0.446485,-1.041797 0.446484,-0.446484 1.041797,-0.446484 0.595312,0 1.041796,0.446484 0.446485,0.446485 0.446485,1.041797 0,0.595312 -0.446485,1.041797 -0.446484,0.446484 -1.041796,0.446484 -0.595313,0 -1.041797,-0.446484 z m 39.6875,-11.90625 q -0.446485,-0.446484 -0.446485,-1.041797 0,-0.595312 0.446485,-1.041797 0.446484,-0.446484 1.041796,-0.446484 0.595313,0 1.041797,0.446484 0.446485,0.446485 0.446485,1.041797 0,0.595313 -0.446485,1.041797 -0.446484,0.446484 -1.041797,0.446484 -0.595312,0 -1.041796,-0.446484 z m -15.875,0 q -0.446485,-0.446484 -0.446485,-1.041797 0,-0.595312 0.446485,-1.041797 0.446484,-0.446484 1.041797,-0.446484 0.595312,0 1.041796,0.446484 0.446485,0.446485 0.446485,1.041797 0,0.595313 -0.446485,1.041797 -0.446484,0.446484 -1.041796,0.446484 -0.595313,0 -1.041797,-0.446484 z m 15.875,-3.96875 q -0.446485,-0.446484 -0.446485,-1.041797 0,-0.595312 0.446485,-1.041797 0.446484,-0.446484 1.041796,-0.446484 0.595313,0 1.041797,0.446484 0.446485,0.446485 0.446485,1.041797 0,0.595313 -0.446485,1.041797 -0.446484,0.446484 -1.041797,0.446484 -0.595312,0 -1.041796,-0.446484 z m -15.875,0 q -0.446485,-0.446484 -0.446485,-1.041797 0,-0.595312 0.446485,-1.041797 0.446484,-0.446484 1.041797,-0.446484 0.595312,0 1.041796,0.446484 0.446485,0.446485 0.446485,1.041797 0,0.595313 -0.446485,1.041797 -0.446484,0.446484 -1.041796,0.446484 -0.595313,0 -1.041797,-0.446484 z m 15.875,7.9375 q -0.446485,-0.446484 -0.446485,-1.041797 0,-0.595312 0.446485,-1.041797 0.446484,-0.446484 1.041796,-0.446484 0.595313,0 1.041797,0.446484 0.446485,0.446485 0.446485,1.041797 0,0.595313 -0.446485,1.041797 -0.446484,0.446484 -1.041797,0.446484 -0.595312,0 -1.041796,-0.446484 z m -15.875,0 q -0.446485,-0.446484 -0.446485,-1.041797 0,-0.595312 0.446485,-1.041797 0.446484,-0.446484 1.041797,-0.446484 0.595312,0 1.041796,0.446484 0.446485,0.446485 0.446485,1.041797 0,0.595313 -0.446485,1.041797 -0.446484,0.446484 -1.041796,0.446484 -0.595313,0 -1.041797,-0.446484 z m 15.875,3.96875 q -0.446485,-0.446484 -0.446485,-1.041797 0,-0.595312 0.446485,-1.041797 0.446484,-0.446484 1.041796,-0.446484 0.595313,0 1.041797,0.446484 0.446485,0.446485 0.446485,1.041797 0,0.595313 -0.446485,1.041797 -0.446484,0.446484 -1.041797,0.446484 -0.595312,0 -1.041796,-0.446484 z m -15.875,0 q -0.446485,-0.446484 -0.446485,-1.041797 0,-0.595312 0.446485,-1.041797 0.446484,-0.446484 1.041797,-0.446484 0.595312,0 1.041796,0.446484 0.446485,0.446485 0.446485,1.041797 0,0.595313 -0.446485,1.041797 -0.446484,0.446484 -1.041796,0.446484 -0.595313,0 -1.041797,-0.446484 z m 15.875,3.96875 q -0.446485,-0.446485 -0.446485,-1.041797 0,-0.595312 0.446485,-1.041797 0.446484,-0.446484 1.041796,-0.446484 0.595313,0 1.041797,0.446484 0.446485,0.446485 0.446485,1.041797 0,0.595312 -0.446485,1.041797 -0.446484,0.446484 -1.041797,0.446484 -0.595312,0 -1.041796,-0.446484 z m -3.96875,0 q -0.446485,-0.446485 -0.446485,-1.041797 0,-0.595312 0.446485,-1.041797 0.446484,-0.446484 1.041796,-0.446484 0.595313,0 1.041797,0.446484 0.446485,0.446485 0.446485,1.041797 0,0.595312 -0.446485,1.041797 -0.446484,0.446484 -1.041797,0.446484 -0.595312,0 -1.041796,-0.446484 z m -3.96875,0 q -0.446485,-0.446485 -0.446485,-1.041797 0,-0.595312 0.446485,-1.041797 0.446484,-0.446484 1.041797,-0.446484 0.595312,0 1.041796,0.446484 0.446485,0.446485 0.446485,1.041797 0,0.595312 -0.446485,1.041797 -0.446484,0.446484 -1.041796,0.446484 -0.595313,0 -1.041797,-0.446484 z m -3.96875,0 q -0.446485,-0.446485 -0.446485,-1.041797 0,-0.595312 0.446485,-1.041797 0.446484,-0.446484 1.041797,-0.446484 0.595312,0 1.041796,0.446484 0.446485,0.446485 0.446485,1.041797 0,0.595312 -0.446485,1.041797 -0.446484,0.446484 -1.041796,0.446484 -0.595313,0 -1.041797,-0.446484 z M 59.653039,8.9792362 q -0.446485,-0.4464844 -0.446485,-1.0417968 0,-0.5953125 0.446485,-1.0417969 0.446484,-0.4464844 1.041797,-0.4464844 0.595312,0 1.041796,0.4464844 0.446485,0.4464844 0.446485,1.0417969 0,0.5953124 -0.446485,1.0417968 -0.446484,0.4464844 -1.041796,0.4464844 -0.595313,0 -1.041797,-0.4464844 z m 0,3.9687498 q -0.446485,-0.446484 -0.446485,-1.041797 0,-0.595312 0.446485,-1.041797 0.446484,-0.446484 1.041797,-0.446484 0.595312,0 1.041796,0.446484 0.446485,0.446485 0.446485,1.041797 0,0.595313 -0.446485,1.041797 -0.446484,0.446485 -1.041796,0.446485 -0.595313,0 -1.041797,-0.446485 z m 15.875,7.9375 q -0.446485,-0.446484 -0.446485,-1.041797 0,-0.595312 0.446485,-1.041797 0.446484,-0.446484 1.041796,-0.446484 0.595313,0 1.041797,0.446484 0.446485,0.446485 0.446485,1.041797 0,0.595313 -0.446485,1.041797 -0.446484,0.446484 -1.041797,0.446484 -0.595312,0 -1.041796,-0.446484 z m -15.875,0 q -0.446485,-0.446484 -0.446485,-1.041797 0,-0.595312 0.446485,-1.041797 0.446484,-0.446484 1.041797,-0.446484 0.595312,0 1.041796,0.446484 0.446485,0.446485 0.446485,1.041797 0,0.595313 -0.446485,1.041797 -0.446484,0.446484 -1.041796,0.446484 -0.595313,0 -1.041797,-0.446484 z m 11.90625,-3.96875 q -0.446485,-0.446484 -0.446485,-1.041797 0,-0.595312 0.446485,-1.041797 0.446484,-0.446484 1.041796,-0.446484 0.595313,0 1.041797,0.446484 0.446485,0.446485 0.446485,1.041797 0,0.595313 -0.446485,1.041797 -0.446484,0.446484 -1.041797,0.446484 -0.595312,0 -1.041796,-0.446484 z m -3.96875,0 q -0.446485,-0.446484 -0.446485,-1.041797 0,-0.595312 0.446485,-1.041797 0.446484,-0.446484 1.041797,-0.446484 0.595312,0 1.041796,0.446484 0.446485,0.446485 0.446485,1.041797 0,0.595313 -0.446485,1.041797 -0.446484,0.446484 -1.041796,0.446484 -0.595313,0 -1.041797,-0.446484 z m -3.96875,0 q -0.446485,-0.446484 -0.446485,-1.041797 0,-0.595312 0.446485,-1.041797 0.446484,-0.446484 1.041797,-0.446484 0.595312,0 1.041796,0.446484 0.446485,0.446485 0.446485,1.041797 0,0.595313 -0.446485,1.041797 -0.446484,0.446484 -1.041796,0.446484 -0.595313,0 -1.041797,-0.446484 z m -3.96875,0 q -0.446485,-0.446484 -0.446485,-1.041797 0,-0.595312 0.446485,-1.041797 0.446484,-0.446484 1.041797,-0.446484 0.595312,0 1.041796,0.446484 0.446485,0.446485 0.446485,1.041797 0,0.595313 -0.446485,1.041797 -0.446484,0.446484 -1.041796,0.446484 -0.595313,0 -1.041797,-0.446484 z m 15.875,7.9375 q -0.446485,-0.446484 -0.446485,-1.041797 0,-0.595312 0.446485,-1.041797 0.446484,-0.446484 1.041796,-0.446484 0.595313,0 1.041797,0.446484 0.446485,0.446485 0.446485,1.041797 0,0.595313 -0.446485,1.041797 -0.446484,0.446484 -1.041797,0.446484 -0.595312,0 -1.041796,-0.446484 z m -15.875,0 q -0.446485,-0.446484 -0.446485,-1.041797 0,-0.595312 0.446485,-1.041797 0.446484,-0.446484 1.041797,-0.446484 0.595312,0 1.041796,0.446484 0.446485,0.446485 0.446485,1.041797 0,0.595313 -0.446485,1.041797 -0.446484,0.446484 -1.041796,0.446484 -0.595313,0 -1.041797,-0.446484 z m 15.875,3.96875 q -0.446485,-0.446484 -0.446485,-1.041797 0,-0.595312 0.446485,-1.041797 0.446484,-0.446484 1.041796,-0.446484 0.595313,0 1.041797,0.446484 0.446485,0.446485 0.446485,1.041797 0,0.595313 -0.446485,1.041797 -0.446484,0.446484 -1.041797,0.446484 -0.595312,0 -1.041796,-0.446484 z m -15.875,0 q -0.446485,-0.446484 -0.446485,-1.041797 0,-0.595312 0.446485,-1.041797 0.446484,-0.446484 1.041797,-0.446484 0.595312,0 1.041796,0.446484 0.446485,0.446485 0.446485,1.041797 0,0.595313 -0.446485,1.041797 -0.446484,0.446484 -1.041796,0.446484 -0.595313,0 -1.041797,-0.446484 z m 11.90625,3.96875 q -0.446485,-0.446485 -0.446485,-1.041797 0,-0.595312 0.446485,-1.041797 0.446484,-0.446484 1.041796,-0.446484 0.595313,0 1.041797,0.446484 0.446485,0.446485 0.446485,1.041797 0,0.595312 -0.446485,1.041797 -0.446484,0.446484 -1.041797,0.446484 -0.595312,0 -1.041796,-0.446484 z m -3.96875,0 q -0.446485,-0.446485 -0.446485,-1.041797 0,-0.595312 0.446485,-1.041797 0.446484,-0.446484 1.041797,-0.446484 0.595312,0 1.041796,0.446484 0.446485,0.446485 0.446485,1.041797 0,0.595312 -0.446485,1.041797 -0.446484,0.446484 -1.041796,0.446484 -0.595313,0 -1.041797,-0.446484 z m -3.96875,0 q -0.446485,-0.446485 -0.446485,-1.041797 0,-0.595312 0.446485,-1.041797 0.446484,-0.446484 1.041797,-0.446484 0.595312,0 1.041796,0.446484 0.446485,0.446485 0.446485,1.041797 0,0.595312 -0.446485,1.041797 -0.446484,0.446484 -1.041796,0.446484 -0.595313,0 -1.041797,-0.446484 z m -3.96875,0 q -0.446485,-0.446485 -0.446485,-1.041797 0,-0.595312 0.446485,-1.041797 0.446484,-0.446484 1.041797,-0.446484 0.595312,0 1.041796,0.446484 0.446485,0.446485 0.446485,1.041797 0,0.595312 -0.446485,1.041797 -0.446484,0.446484 -1.041796,0.446484 -0.595313,0 -1.041797,-0.446484 z M 87.434289,8.9792362 q -0.446485,-0.4464844 -0.446485,-1.0417968 0,-0.5953125 0.446485,-1.0417969 0.446484,-0.4464844 1.041797,-0.4464844 0.595312,0 1.041796,0.4464844 0.446485,0.4464844 0.446485,1.0417969 0,0.5953124 -0.446485,1.0417968 -0.446484,0.4464844 -1.041796,0.4464844 -0.595313,0 -1.041797,-0.4464844 z m 7.9375,3.9687498 q -0.446485,-0.446484 -0.446485,-1.041797 0,-0.595312 0.446485,-1.041797 0.446484,-0.446484 1.041796,-0.446484 0.595313,0 1.041797,0.446484 0.446485,0.446485 0.446485,1.041797 0,0.595313 -0.446485,1.041797 -0.446484,0.446485 -1.041797,0.446485 -0.595312,0 -1.041796,-0.446485 z m -3.96875,0 q -0.446485,-0.446484 -0.446485,-1.041797 0,-0.595312 0.446485,-1.041797 0.446484,-0.446484 1.041797,-0.446484 0.595312,0 1.041796,0.446484 0.446485,0.446485 0.446485,1.041797 0,0.595313 -0.446485,1.041797 -0.446484,0.446485 -1.041796,0.446485 -0.595313,0 -1.041797,-0.446485 z m -3.96875,0 q -0.446485,-0.446484 -0.446485,-1.041797 0,-0.595312 0.446485,-1.041797 0.446484,-0.446484 1.041797,-0.446484 0.595312,0 1.041796,0.446484 0.446485,0.446485 0.446485,1.041797 0,0.595313 -0.446485,1.041797 -0.446484,0.446485 -1.041796,0.446485 -0.595313,0 -1.041797,-0.446485 z m -3.96875,0 q -0.446485,-0.446484 -0.446485,-1.041797 0,-0.595312 0.446485,-1.041797 0.446484,-0.446484 1.041797,-0.446484 0.595312,0 1.041796,0.446484 0.446485,0.446485 0.446485,1.041797 0,0.595313 -0.446485,1.041797 -0.446484,0.446485 -1.041796,0.446485 -0.595313,0 -1.041797,-0.446485 z m 3.96875,7.9375 q -0.446485,-0.446484 -0.446485,-1.041797 0,-0.595312 0.446485,-1.041797 0.446484,-0.446484 1.041797,-0.446484 0.595312,0 1.041796,0.446484 0.446485,0.446485 0.446485,1.041797 0,0.595313 -0.446485,1.041797 -0.446484,0.446484 -1.041796,0.446484 -0.595313,0 -1.041797,-0.446484 z m 0,-3.96875 q -0.446485,-0.446484 -0.446485,-1.041797 0,-0.595312 0.446485,-1.041797 0.446484,-0.446484 1.041797,-0.446484 0.595312,0 1.041796,0.446484 0.446485,0.446485 0.446485,1.041797 0,0.595313 -0.446485,1.041797 -0.446484,0.446484 -1.041796,0.446484 -0.595313,0 -1.041797,-0.446484 z m 0,7.9375 q -0.446485,-0.446484 -0.446485,-1.041797 0,-0.595312 0.446485,-1.041797 0.446484,-0.446484 1.041797,-0.446484 0.595312,0 1.041796,0.446484 0.446485,0.446485 0.446485,1.041797 0,0.595313 -0.446485,1.041797 -0.446484,0.446484 -1.041796,0.446484 -0.595313,0 -1.041797,-0.446484 z m 0,3.96875 q -0.446485,-0.446484 -0.446485,-1.041797 0,-0.595312 0.446485,-1.041797 0.446484,-0.446484 1.041797,-0.446484 0.595312,0 1.041796,0.446484 0.446485,0.446485 0.446485,1.041797 0,0.595313 -0.446485,1.041797 -0.446484,0.446484 -1.041796,0.446484 -0.595313,0 -1.041797,-0.446484 z m 11.90625,3.96875 q -0.446485,-0.446485 -0.446485,-1.041797 0,-0.595312 0.446485,-1.041797 0.446484,-0.446484 1.041801,-0.446484 0.59531,0 1.04179,0.446484 0.44649,0.446485 0.44649,1.041797 0,0.595312 -0.44649,1.041797 -0.44648,0.446484 -1.04179,0.446484 -0.595317,0 -1.041801,-0.446484 z m -3.96875,0 q -0.446485,-0.446485 -0.446485,-1.041797 0,-0.595312 0.446485,-1.041797 0.446484,-0.446484 1.041796,-0.446484 0.595313,0 1.041797,0.446484 0.446485,0.446485 0.446485,1.041797 0,0.595312 -0.446485,1.041797 -0.446484,0.446484 -1.041797,0.446484 -0.595312,0 -1.041796,-0.446484 z m -3.96875,0 q -0.446485,-0.446485 -0.446485,-1.041797 0,-0.595312 0.446485,-1.041797 0.446484,-0.446484 1.041797,-0.446484 0.595312,0 1.041796,0.446484 0.446485,0.446485 0.446485,1.041797 0,0.595312 -0.446485,1.041797 -0.446484,0.446484 -1.041796,0.446484 -0.595313,0 -1.041797,-0.446484 z m 31.750001,-11.90625 q -0.44649,-0.446484 -0.44649,-1.041797 0,-0.595312 0.44649,-1.041797 0.44648,-0.446484 1.0418,-0.446484 0.59531,0 1.04179,0.446484 0.44649,0.446485 0.44649,1.041797 0,0.595313 -0.44649,1.041797 -0.44648,0.446484 -1.04179,0.446484 -0.59532,0 -1.0418,-0.446484 z m -15.875,0 q -0.44649,-0.446484 -0.44649,-1.041797 0,-0.595312 0.44649,-1.041797 0.44648,-0.446484 1.0418,-0.446484 0.59531,0 1.04179,0.446484 0.44649,0.446485 0.44649,1.041797 0,0.595313 -0.44649,1.041797 -0.44648,0.446484 -1.04179,0.446484 -0.59532,0 -1.0418,-0.446484 z m 11.90625,-3.96875 q -0.44649,-0.446484 -0.44649,-1.041797 0,-0.595312 0.44649,-1.041797 0.44648,-0.446484 1.0418,-0.446484 0.59531,0 1.04179,0.446484 0.44649,0.446485 0.44649,1.041797 0,0.595313 -0.44649,1.041797 -0.44648,0.446484 -1.04179,0.446484 -0.59532,0 -1.0418,-0.446484 z m -3.96875,0 q -0.44649,-0.446484 -0.44649,-1.041797 0,-0.595312 0.44649,-1.041797 0.44648,-0.446484 1.0418,-0.446484 0.59531,0 1.04179,0.446484 0.44649,0.446485 0.44649,1.041797 0,0.595313 -0.44649,1.041797 -0.44648,0.446484 -1.04179,0.446484 -0.59532,0 -1.0418,-0.446484 z m -3.96875,0 q -0.44649,-0.446484 -0.44649,-1.041797 0,-0.595312 0.44649,-1.041797 0.44648,-0.446484 1.0418,-0.446484 0.59531,0 1.04179,0.446484 0.44649,0.446485 0.44649,1.041797 0,0.595313 -0.44649,1.041797 -0.44648,0.446484 -1.04179,0.446484 -0.59532,0 -1.0418,-0.446484 z m 11.90625,7.9375 q -0.44649,-0.446484 -0.44649,-1.041797 0,-0.595312 0.44649,-1.041797 0.44648,-0.446484 1.0418,-0.446484 0.59531,0 1.04179,0.446484 0.44649,0.446485 0.44649,1.041797 0,0.595313 -0.44649,1.041797 -0.44648,0.446484 -1.04179,0.446484 -0.59532,0 -1.0418,-0.446484 z m -3.96875,0 q -0.44649,-0.446484 -0.44649,-1.041797 0,-0.595312 0.44649,-1.041797 0.44648,-0.446484 1.0418,-0.446484 0.59531,0 1.04179,0.446484 0.44649,0.446485 0.44649,1.041797 0,0.595313 -0.44649,1.041797 -0.44648,0.446484 -1.04179,0.446484 -0.59532,0 -1.0418,-0.446484 z m -3.96875,0 q -0.44649,-0.446484 -0.44649,-1.041797 0,-0.595312 0.44649,-1.041797 0.44648,-0.446484 1.0418,-0.446484 0.59531,0 1.04179,0.446484 0.44649,0.446485 0.44649,1.041797 0,0.595313 -0.44649,1.041797 -0.44648,0.446484 -1.04179,0.446484 -0.59532,0 -1.0418,-0.446484 z m -3.96875,0 q -0.44649,-0.446484 -0.44649,-1.041797 0,-0.595312 0.44649,-1.041797 0.44648,-0.446484 1.0418,-0.446484 0.59531,0 1.04179,0.446484 0.44649,0.446485 0.44649,1.041797 0,0.595313 -0.44649,1.041797 -0.44648,0.446484 -1.04179,0.446484 -0.59532,0 -1.0418,-0.446484 z m -3.96875,0 q -0.44649,-0.446484 -0.44649,-1.041797 0,-0.595312 0.44649,-1.041797 0.44648,-0.446484 1.0418,-0.446484 0.59531,0 1.04179,0.446484 0.44649,0.446485 0.44649,1.041797 0,0.595313 -0.44649,1.041797 -0.44648,0.446484 -1.04179,0.446484 -0.59532,0 -1.0418,-0.446484 z m 0,3.96875 q -0.44649,-0.446484 -0.44649,-1.041797 0,-0.595312 0.44649,-1.041797 0.44648,-0.446484 1.0418,-0.446484 0.59531,0 1.04179,0.446484 0.44649,0.446485 0.44649,1.041797 0,0.595313 -0.44649,1.041797 -0.44648,0.446484 -1.04179,0.446484 -0.59532,0 -1.0418,-0.446484 z m 15.875,3.96875 q -0.44649,-0.446485 -0.44649,-1.041797 0,-0.595312 0.44649,-1.041797 0.44648,-0.446484 1.0418,-0.446484 0.59531,0 1.04179,0.446484 0.44649,0.446485 0.44649,1.041797 0,0.595312 -0.44649,1.041797 -0.44648,0.446484 -1.04179,0.446484 -0.59532,0 -1.0418,-0.446484 z m -3.96875,0 q -0.44649,-0.446485 -0.44649,-1.041797 0,-0.595312 0.44649,-1.041797 0.44648,-0.446484 1.0418,-0.446484 0.59531,0 1.04179,0.446484 0.44649,0.446485 0.44649,1.041797 0,0.595312 -0.44649,1.041797 -0.44648,0.446484 -1.04179,0.446484 -0.59532,0 -1.0418,-0.446484 z m -3.96875,0 q -0.44649,-0.446485 -0.44649,-1.041797 0,-0.595312 0.44649,-1.041797 0.44648,-0.446484 1.0418,-0.446484 0.59531,0 1.04179,0.446484 0.44649,0.446485 0.44649,1.041797 0,0.595312 -0.44649,1.041797 -0.44648,0.446484 -1.04179,0.446484 -0.59532,0 -1.0418,-0.446484 z m -3.96875,0 q -0.44649,-0.446485 -0.44649,-1.041797 0,-0.595312 0.44649,-1.041797 0.44648,-0.446484 1.0418,-0.446484 0.59531,0 1.04179,0.446484 0.44649,0.446485 0.44649,1.041797 0,0.595312 -0.44649,1.041797 -0.44648,0.446484 -1.04179,0.446484 -0.59532,0 -1.0418,-0.446484 z"
         id="path1" />
      <path
         style="letter-spacing:-10.5833px;stroke-width:0.389"
         d="m 135.05929,32.791736 q -0.44649,-0.446485 -0.44649,-1.041797 0,-0.595312 0.44649,-1.041797 0.44648,-0.446484 1.0418,-0.446484 0.59531,0 1.04179,0.446484 0.44649,0.446485 0.44649,1.041797 0,0.595312 -0.44649,1.041797 -0.44648,0.446484 -1.04179,0.446484 -0.59532,0 -1.0418,-0.446484 z"
         id="path2" />
      <path
         style="stroke-width:0.389"
         d="m 144.31974,20.885486 q -0.44648,-0.446484 -0.44648,-1.041797 0,-0.595312 0.44648,-1.041797 0.44649,-0.446484 1.0418,-0.446484 0.59531,0 1.04179,0.446484 0.44649,0.446485 0.44649,1.041797 0,0.595313 -0.44649,1.041797 -0.44648,0.446484 -1.04179,0.446484 -0.59531,0 -1.0418,-0.446484 z m 15.875,-3.96875 q -0.44648,-0.446484 -0.44648,-1.041797 0,-0.595312 0.44648,-1.041797 0.44649,-0.446484 1.0418,-0.446484 0.59531,0 1.04179,0.446484 0.44649,0.446485 0.44649,1.041797 0,0.595313 -0.44649,1.041797 -0.44648,0.446484 -1.04179,0.446484 -0.59531,0 -1.0418,-0.446484 z m -3.96875,0 q -0.44648,-0.446484 -0.44648,-1.041797 0,-0.595312 0.44648,-1.041797 0.44649,-0.446484 1.0418,-0.446484 0.59531,0 1.04179,0.446484 0.44649,0.446485 0.44649,1.041797 0,0.595313 -0.44649,1.041797 -0.44648,0.446484 -1.04179,0.446484 -0.59531,0 -1.0418,-0.446484 z m -3.96875,0 q -0.44648,-0.446484 -0.44648,-1.041797 0,-0.595312 0.44648,-1.041797 0.44649,-0.446484 1.0418,-0.446484 0.59531,0 1.04179,0.446484 0.44649,0.446485 0.44649,1.041797 0,0.595313 -0.44649,1.041797 -0.44648,0.446484 -1.04179,0.446484 -0.59531,0 -1.0418,-0.446484 z m -3.96875,0 q -0.44648,-0.446484 -0.44648,-1.041797 0,-0.595312 0.44648,-1.041797 0.44649,-0.446484 1.0418,-0.446484 0.59531,0 1.04179,0.446484 0.44649,0.446485 0.44649,1.041797 0,0.595313 -0.44649,1.041797 -0.44648,0.446484 -1.04179,0.446484 -0.59531,0 -1.0418,-0.446484 z m -3.96875,7.9375 q -0.44648,-0.446484 -0.44648,-1.041797 0,-0.595312 0.44648,-1.041797 0.44649,-0.446484 1.0418,-0.446484 0.59531,0 1.04179,0.446484 0.44649,0.446485 0.44649,1.041797 0,0.595313 -0.44649,1.041797 -0.44648,0.446484 -1.04179,0.446484 -0.59531,0 -1.0418,-0.446484 z m 0,3.96875 q -0.44648,-0.446484 -0.44648,-1.041797 0,-0.595312 0.44648,-1.041797 0.44649,-0.446484 1.0418,-0.446484 0.59531,0 1.04179,0.446484 0.44649,0.446485 0.44649,1.041797 0,0.595313 -0.44649,1.041797 -0.44648,0.446484 -1.04179,0.446484 -0.59531,0 -1.0418,-0.446484 z m 15.875,3.96875 q -0.44648,-0.446485 -0.44648,-1.041797 0,-0.595312 0.44648,-1.041797 0.44649,-0.446484 1.0418,-0.446484 0.59531,0 1.04179,0.446484 0.44649,0.446485 0.44649,1.041797 0,0.595312 -0.44649,1.041797 -0.44648,0.446484 -1.04179,0.446484 -0.59531,0 -1.0418,-0.446484 z m -3.96875,0 q -0.44648,-0.446485 -0.44648,-1.041797 0,-0.595312 0.44648,-1.041797 0.44649,-0.446484 1.0418,-0.446484 0.59531,0 1.04179,0.446484 0.44649,0.446485 0.44649,1.041797 0,0.595312 -0.44649,1.041797 -0.44648,0.446484 -1.04179,0.446484 -0.59531,0 -1.0418,-0.446484 z m -3.96875,0 q -0.44648,-0.446485 -0.44648,-1.041797 0,-0.595312 0.44648,-1.041797 0.44649,-0.446484 1.0418,-0.446484 0.59531,0 1.04179,0.446484 0.44649,0.446485 0.44649,1.041797 0,0.595312 -0.44649,1.041797 -0.44648,0.446484 -1.04179,0.446484 -0.59531,0 -1.0418,-0.446484 z m -3.96875,0 q -0.44648,-0.446485 -0.44648,-1.041797 0,-0.595312 0.44648,-1.041797 0.44649,-0.446484 1.0418,-0.446484 0.59531,0 1.04179,0.446484 0.44649,0.446485 0.44649,1.041797 0,0.595312 -0.44649,1.041797 -0.44648,0.446484 -1.04179,0.446484 -0.59531,0 -1.0418,-0.446484 z m 19.84375,-11.90625 q -0.44648,-0.446484 -0.44648,-1.041797 0,-0.595312 0.44648,-1.041797 0.44649,-0.446484 1.0418,-0.446484 0.59531,0 1.04179,0.446484 0.44649,0.446485 0.44649,1.041797 0,0.595313 -0.44649,1.041797 -0.44648,0.446484 -1.04179,0.446484 -0.59531,0 -1.0418,-0.446484 z m 15.875,-3.96875 q -0.44648,-0.446484 -0.44648,-1.041797 0,-0.595312 0.44648,-1.041797 0.44649,-0.446484 1.0418,-0.446484 0.59531,0 1.04179,0.446484 0.44649,0.446485 0.44649,1.041797 0,0.595313 -0.44649,1.041797 -0.44648,0.446484 -1.04179,0.446484 -0.59531,0 -1.0418,-0.446484 z m -3.96875,0 q -0.44648,-0.446484 -0.44648,-1.041797 0,-0.595312 0.44648,-1.041797 0.44649,-0.446484 1.0418,-0.446484 0.59531,0 1.04179,0.446484 0.44649,0.446485 0.44649,1.041797 0,0.595313 -0.44649,1.041797 -0.44648,0.446484 -1.04179,0.446484 -0.59531,0 -1.0418,-0.446484 z m -3.96875,0 q -0.44648,-0.446484 -0.44648,-1.041797 0,-0.595312 0.44648,-1.041797 0.44649,-0.446484 1.0418,-0.446484 0.59531,0 1.04179,0.446484 0.44649,0.446485 0.44649,1.041797 0,0.595313 -0.44649,1.041797 -0.44648,0.446484 -1.04179,0.446484 -0.59531,0 -1.0418,-0.446484 z m -3.96875,0 q -0.44648,-0.446484 -0.44648,-1.041797 0,-0.595312 0.44648,-1.041797 0.44649,-0.446484 1.0418,-0.446484 0.59531,0 1.04179,0.446484 0.44649,0.446485 0.44649,1.041797 0,0.595313 -0.44649,1.041797 -0.44648,0.446484 -1.04179,0.446484 -0.59531,0 -1.0418,-0.446484 z m -3.96875,7.9375 q -0.44648,-0.446484 -0.44648,-1.041797 0,-0.595312 0.44648,-1.041797 0.44649,-0.446484 1.0418,-0.446484 0.59531,0 1.04179,0.446484 0.44649,0.446485 0.44649,1.041797 0,0.595313 -0.44649,1.041797 -0.44648,0.446484 -1.04179,0.446484 -0.59531,0 -1.0418,-0.446484 z m 0,3.96875 q -0.44648,-0.446484 -0.44648,-1.041797 0,-0.595312 0.44648,-1.041797 0.44649,-0.446484 1.0418,-0.446484 0.59531,0 1.04179,0.446484 0.44649,0.446485 0.44649,1.041797 0,0.595313 -0.44649,1.041797 -0.44648,0.446484 -1.04179,0.446484 -0.59531,0 -1.0418,-0.446484 z m 15.875,3.96875 q -0.44648,-0.446485 -0.44648,-1.041797 0,-0.595312 0.44648,-1.041797 0.44649,-0.446484 1.0418,-0.446484 0.59531,0 1.04179,0.446484 0.44649,0.446485 0.44649,1.041797 0,0.595312 -0.44649,1.041797 -0.44648,0.446484 -1.04179,0.446484 -0.59531,0 -1.0418,-0.446484 z m -3.96875,0 q -0.44648,-0.446485 -0.44648,-1.041797 0,-0.595312 0.44648,-1.041797 0.44649,-0.446484 1.0418,-0.446484 0.59531,0 1.04179,0.446484 0.44649,0.446485 0.44649,1.041797 0,0.595312 -0.44649,1.041797 -0.44648,0.446484 -1.04179,0.446484 -0.59531,0 -1.0418,-0.446484 z m -3.96875,0 q -0.44648,-0.446485 -0.44648,-1.041797 0,-0.595312 0.44648,-1.041797 0.44649,-0.446484 1.0418,-0.446484 0.59531,0 1.04179,0.446484 0.44649,0.446485 0.44649,1.041797 0,0.595312 -0.44649,1.041797 -0.44648,0.446484 -1.04179,0.446484 -0.59531,0 -1.0418,-0.446484 z m -3.96875,0 q -0.44648,-0.446485 -0.44648,-1.041797 0,-0.595312 0.44648,-1.041797 0.44649,-0.446484 1.0418,-0.446484 0.59531,0 1.04179,0.446484 0.44649,0.446485 0.44649,1.041797 0,0.595312 -0.44649,1.041797 -0.44648,0.446484 -1.04179,0.446484 -0.59531,0 -1.0418,-0.446484 z"
         id="path3" />
    </g>
  </g>
</svg>
