<?xml version="1.0" encoding="UTF-8" standalone="no"?>
<!-- Created with Inkscape (http://www.inkscape.org/) -->

<svg
   width="850"
   height="250"
   viewBox="0 0 224.89584 66.145832"
   version="1.1"
   id="svg1"
   xml:space="preserve"
   inkscape:version="1.4.3 (0d15f75042, 2025-12-25)"
   sodipodi:docname="github.svg"
   xmlns:inkscape="http://www.inkscape.org/namespaces/inkscape"
   xmlns:sodipodi="http://sodipodi.sourceforge.net/DTD/sodipodi-0.dtd"
   xmlns:xlink="http://www.w3.org/1999/xlink"
   xmlns="http://www.w3.org/2000/svg"
   xmlns:svg="http://www.w3.org/2000/svg"><sodipodi:namedview
     id="namedview1"
     pagecolor="#ffffff"
     bordercolor="#000000"
     borderopacity="0.25"
     inkscape:showpageshadow="2"
     inkscape:pageopacity="0.0"
     inkscape:pagecheckerboard="0"
     inkscape:deskcolor="#d1d1d1"
     inkscape:document-units="mm"
     showguides="true"
     inkscape:zoom="1.074961"
     inkscape:cx="478.15688"
     inkscape:cy="242.79951"
     inkscape:window-width="1536"
     inkscape:window-height="792"
     inkscape:window-x="0"
     inkscape:window-y="0"
     inkscape:window-maximized="1"
     inkscape:current-layer="svg1" /><defs
     id="defs1"><linearGradient
       xlink:href="#linearGradient6924-2"
       id="linearGradient6918-6"
       x1="42519.285"
       y1="-7078.7891"
       x2="42575.336"
       y2="-6966.9307"
       gradientUnits="userSpaceOnUse"
       gradientTransform="matrix(0.30253728,0,0,0.30253728,-12805.654,2093.06)" /><linearGradient
       id="linearGradient6924-2"><stop
         style="stop-color:#ffffff;stop-opacity:0;"
         offset="0"
         id="stop6920-9" /><stop
         id="stop6926-1"
         offset="0.49517274"
         style="stop-color:#ffffff;stop-opacity:0.30000001;" /><stop
         style="stop-color:#ffffff;stop-opacity:0.30000001;"
         offset="1"
         id="stop6922-2" /></linearGradient><linearGradient
       xlink:href="#linearGradient6924-2"
       id="linearGradient6918-6-7"
       x1="42519.285"
       y1="-7078.7891"
       x2="42575.336"
       y2="-6966.9307"
       gradientUnits="userSpaceOnUse" /><clipPath
       id="clip0_731_27173"><rect
         width="416"
         height="95"
         fill="white"
         id="rect3" /></clipPath><clipPath
       id="clip1_731_27173"><rect
         width="298.068"
         height="75.9408"
         fill="white"
         transform="translate(117.185 9.49258)"
         id="rect4" /></clipPath></defs><rect
     style="fill:#232925;fill-opacity:1;stroke-width:0.2492"
     id="rect1"
     width="224.71744"
     height="66.306084"
     x="0"
     y="0"
     ry="0" /><g
     inkscape:label="Layer 1"
     inkscape:groupmode="layer"
     id="layer1"
     transform="translate(-0.27872431,-0.19385162)"><g
       style="fill:none"
       id="g1"
       transform="matrix(0.4545165,0,0,0.4545165,17.926611,11.864629)"><g
         clip-path="url(#clip0_731_27173)"
         id="g3"><path
           d="M 41.6394,69.3848 C 29.0066,67.8535 20.1062,58.7617 20.1062,46.9902 c 0,-4.7851 1.7227,-9.9531 4.5938,-13.3984 -1.2442,-3.1582 -1.0528,-9.8574 0.3828,-12.6328 3.8281,-0.4785 8.9961,1.5312 12.0586,4.3066 3.6367,-1.1484 7.4648,-1.7226 12.1543,-1.7226 4.6894,0 8.5175,0.5742 11.9628,1.6269 2.9668,-2.6797 8.2305,-4.6894 12.0586,-4.2109 1.3399,2.584 1.5313,9.2832 0.2871,12.5371 3.0625,3.6367 4.6895,8.5176 4.6895,13.4941 0,11.7715 -8.9004,20.6719 -21.7246,22.2989 3.2539,2.1054 5.4551,6.6992 5.4551,11.9629 v 9.9531 c 0,2.8711 2.3925,4.498 5.2636,3.3496 C 84.6101,87.9512 98.2,70.6289 98.2,49.1914 98.2,22.1074 76.1882,6.69539e-7 49.1042,4.309e-7 22.0203,1.92261e-7 0.199951,22.1074 0.199951,49.1914 c 0,21.2461 13.494149,38.8555 31.677749,45.459 2.584,0.957 5.0723,-0.7656 5.0723,-3.3496 v -7.6563 c -1.3399,0.5743 -3.0625,0.9571 -4.5938,0.9571 -6.3164,0 -10.0488,-3.4453 -12.7285,-9.8575 -1.0527,-2.5839 -2.2012,-4.1152 -4.4024,-4.4023 -1.1484,-0.0957 -1.5312,-0.5742 -1.5312,-1.1484 0,-1.1485 1.9141,-2.0098 3.8281,-2.0098 2.7754,0 5.168,1.7227 7.6563,5.2637 1.914,2.7754 3.9238,4.0195 6.3164,4.0195 2.3926,0 3.9238,-0.8613 6.125,-3.0625 1.6269,-1.627 2.8711,-3.0625 4.0195,-4.0195 z"
           fill="#ffffff"
           id="path1" /><g
           clip-path="url(#clip1_731_27173)"
           id="g2"><path
             d="M 188.937,83.0045 V 33.2827 h 13.978 v 49.7218 z m 41.079,0 c -9.289,0 -12.917,-3.9813 -12.917,-12.3862 V 44.9611 h -8.847 V 33.2827 h 8.847 v -9.909 l 13.979,-3.2735 v 13.1825 h 10.351 v 11.6784 h -10.351 v 22.5606 c 0,2.7427 1.239,3.8044 3.981,3.8044 h 6.37 v 11.6784 z m 97.454,0.8847 c -10.882,0 -16.81,-6.0161 -16.81,-16.9868 V 33.2827 h 14.068 v 29.9039 c 0,6.1046 2.742,9.4666 7.962,9.4666 6.016,0 10.617,-5.5738 10.617,-13.1825 v -26.188 h 14.067 v 49.7218 h -14.067 v -8.4049 c -2.654,5.3968 -9.024,9.2896 -15.837,9.2896 z m 67.143,0 c -6.781,0 -12.974,-3.8928 -15.926,-9.4666 v 8.5819 H 364.709 V 13.6417 h 14.067 v 28.7537 c 2.863,-6.0162 9.322,-10.2629 15.837,-10.2629 13.568,0 20.735,9.3782 20.26,25.9226 0.475,16.3675 -6.957,25.8341 -20.26,25.8341 z m -4.955,-11.7669 c 7.287,0 11.268,-5.3968 10.794,-14.0672 0.474,-8.7588 -3.507,-14.1557 -10.794,-14.1557 -5.807,0 -10.407,5.6623 -10.882,13.4479 v 0.7963 c 0.475,8.051 5.075,13.9787 10.882,13.9787 z M 288.734,13.6417 V 41.7761 H 262.369 V 13.6417 h -15.04 v 69.3628 h 15.04 V 55.224 h 26.365 v 27.7805 h 15.041 V 13.6417 Z M 150.628,84.3316 c -20.526,0 -33.443,-14.0672 -33.443,-36.097 0,-22.0298 13.183,-35.92 34.062,-35.92 16.987,0 27.25,7.2547 30.523,19.464 l -15.217,3.6274 c -1.858,-6.6355 -7.166,-10.2629 -15.306,-10.2629 -12.121,0 -18.668,7.9626 -18.668,23.0915 0,15.1289 6.37,23.2684 18.314,23.2684 10.971,0 17.518,-6.7239 17.518,-18.137 v -2.6541 l 3.893,5.3968 H 149.655 V 43.3686 h 33.973 v 8.051 c 0,21.1451 -12.297,32.912 -33,32.912 z m 45.298,-55.738 c 4.689,0 8.317,-3.6274 8.317,-8.3165 0,-4.689 -3.628,-8.3164 -8.317,-8.3164 -4.689,0 -8.316,3.6274 -8.316,8.3164 0,4.6891 3.627,8.3165 8.316,8.3165 z"
             fill="#ffffff"
             id="path2" /></g></g></g></g></svg>
