<?xml version="1.0" encoding="UTF-8" standalone="no"?>
<!-- Created with Inkscape (http://www.inkscape.org/) -->

<svg
   width="850"
   height="180"
   viewBox="0 0 224.89584 47.624999"
   version="1.1"
   id="svg1"
   xml:space="preserve"
   inkscape:version="1.4.3 (0d15f75042, 2025-12-25)"
   sodipodi:docname="google.svg"
   xmlns:inkscape="http://www.inkscape.org/namespaces/inkscape"
   xmlns:sodipodi="http://sodipodi.sourceforge.net/DTD/sodipodi-0.dtd"
   xmlns:xlink="http://www.w3.org/1999/xlink"
   xmlns="http://www.w3.org/2000/svg"
   xmlns:svg="http://www.w3.org/2000/svg"><sodipodi:namedview
     id="namedview1"
     pagecolor="#ffffff"
     bordercolor="#000000"
     borderopacity="0.25"
     inkscape:showpageshadow="2"
     inkscape:pageopacity="0.0"
     inkscape:pagecheckerboard="0"
     inkscape:deskcolor="#d1d1d1"
     inkscape:document-units="mm"
     showguides="true"
     inkscape:zoom="1.074961"
     inkscape:cx="478.15688"
     inkscape:cy="242.79951"
     inkscape:window-width="1536"
     inkscape:window-height="792"
     inkscape:window-x="0"
     inkscape:window-y="0"
     inkscape:window-maximized="1"
     inkscape:current-layer="layer1" /><defs
     id="defs1"><linearGradient
       xlink:href="#linearGradient6924-2"
       id="linearGradient6918-6"
       x1="42519.285"
       y1="-7078.7891"
       x2="42575.336"
       y2="-6966.9307"
       gradientUnits="userSpaceOnUse"
       gradientTransform="matrix(0.30253728,0,0,0.30253728,-12805.654,2093.06)" /><linearGradient
       id="linearGradient6924-2"><stop
         style="stop-color:#ffffff;stop-opacity:0;"
         offset="0"
         id="stop6920-9" /><stop
         id="stop6926-1"
         offset="0.49517274"
         style="stop-color:#ffffff;stop-opacity:0.30000001;" /><stop
         style="stop-color:#ffffff;stop-opacity:0.30000001;"
         offset="1"
         id="stop6922-2" /></linearGradient><linearGradient
       xlink:href="#linearGradient6924-2"
       id="linearGradient6918-6-7"
       x1="42519.285"
       y1="-7078.7891"
       x2="42575.336"
       y2="-6966.9307"
       gradientUnits="userSpaceOnUse" /><clipPath
       id="clip0_760_7197"><rect
         width="20"
         height="20"
         fill="#ffffff"
         transform="translate(12,10)"
         id="rect6"
         x="0"
         y="0" /></clipPath></defs><g
     inkscape:label="Layer 1"
     inkscape:groupmode="layer"
     id="layer1"
     transform="translate(-0.31133441,-8.6956045)"><g
       style="fill:none"
       id="g1"
       transform="matrix(1.1896005,0,0,1.1896005,0.31133441,8.6956045)"><rect
         x="0.5"
         y="0.5"
         width="188"
         height="39"
         rx="3.5"
         fill="#ffffff"
         id="rect1-3" /><g
         clip-path="url(#clip0_760_7197)"
         id="g4"><path
           d="m 31.6,20.2273 c 0,-0.7091 -0.0636,-1.3909 -0.1818,-2.0455 H 22 V 22.05 h 5.3818 c -0.2318,1.25 -0.9363,2.3091 -1.9954,3.0182 v 2.5091 h 3.2318 C 30.5091,25.8364 31.6,23.2727 31.6,20.2273 Z"
           fill="#4285f4"
           id="path1" /><path
           d="m 22,30 c 2.7,0 4.9636,-0.8955 6.6181,-2.4227 l -3.2318,-2.5091 c -0.8954,0.6 -2.0409,0.9545 -3.3863,0.9545 -2.6046,0 -4.8091,-1.7591 -5.5955,-4.1227 h -3.3409 v 2.5909 C 14.7091,27.7591 18.0909,30 22,30 Z"
           fill="#34a853"
           id="path2" /><path
           d="m 16.4045,21.9 c -0.2,-0.6 -0.3136,-1.2409 -0.3136,-1.9 0,-0.6591 0.1136,-1.3 0.3136,-1.9 V 15.5091 H 13.0636 C 12.3864,16.8591 12,18.3864 12,20 c 0,1.6136 0.3864,3.1409 1.0636,4.4909 z"
           fill="#fbbc04"
           id="path3" /><path
           d="m 22,13.9773 c 1.4681,0 2.7863,0.5045 3.8227,1.4954 l 2.8682,-2.8682 C 26.9591,10.9909 24.6954,10 22,10 c -3.9091,0 -7.2909,2.2409 -8.9364,5.5091 L 16.4045,18.1 C 17.1909,15.7364 19.3954,13.9773 22,13.9773 Z"
           fill="#e94235"
           id="path4" /></g><path
         d="m 48.8906,21.7598 h 1.709 c -0.0547,0.6517 -0.237,1.2327 -0.5469,1.7431 -0.3099,0.5059 -0.7451,0.9047 -1.3056,1.1963 -0.5606,0.2917 -1.2419,0.4375 -2.044,0.4375 -0.6152,0 -1.1689,-0.1094 -1.6611,-0.3281 -0.4922,-0.2233 -0.9137,-0.5378 -1.2647,-0.9434 -0.3509,-0.4101 -0.6197,-0.9046 -0.8066,-1.4834 -0.1823,-0.5787 -0.2734,-1.2259 -0.2734,-1.9414 v -0.8271 c 0,-0.7155 0.0934,-1.3626 0.2802,-1.9414 0.1914,-0.5788 0.4649,-1.0733 0.8204,-1.4834 0.3554,-0.4147 0.7815,-0.7315 1.2783,-0.9502 0.5013,-0.2188 1.0641,-0.3281 1.6884,-0.3281 0.793,0 1.4629,0.1458 2.0098,0.4375 0.5469,0.2916 0.9707,0.6949 1.2715,1.2099 0.3053,0.515 0.4922,1.1052 0.5605,1.7705 h -1.7089 c -0.0456,-0.4284 -0.1459,-0.7952 -0.3008,-1.1006 -0.1504,-0.3053 -0.3737,-0.5377 -0.6699,-0.6972 -0.2963,-0.1641 -0.6836,-0.2461 -1.1622,-0.2461 -0.3919,0 -0.7337,0.0729 -1.0253,0.2187 -0.2917,0.1459 -0.5355,0.3601 -0.7315,0.6426 -0.196,0.2826 -0.3441,0.6312 -0.4443,1.0459 -0.0957,0.4102 -0.1436,0.8796 -0.1436,1.4082 v 0.8408 c 0,0.5013 0.0433,0.9571 0.1299,1.3672 0.0912,0.4056 0.2279,0.7542 0.4102,1.0459 0.1868,0.2917 0.4238,0.5173 0.7109,0.6768 0.2871,0.1595 0.6312,0.2392 1.0322,0.2392 0.4877,0 0.8819,-0.0774 1.1826,-0.2324 0.3054,-0.1549 0.5355,-0.3805 0.6905,-0.6767 0.1595,-0.3008 0.2643,-0.6677 0.3144,-1.1006 z m 2.7891,-0.376 v -0.1572 c 0,-0.5332 0.0775,-1.0277 0.2324,-1.4834 0.155,-0.4603 0.3783,-0.8591 0.6699,-1.1963 0.2963,-0.3418 0.6563,-0.6061 1.0801,-0.793 0.4284,-0.1914 0.9115,-0.2871 1.4492,-0.2871 0.5423,0 1.0254,0.0957 1.4492,0.2871 0.4284,0.1869 0.7907,0.4512 1.087,0.793 0.2962,0.3372 0.5218,0.736 0.6767,1.1963 0.155,0.4557 0.2324,0.9502 0.2324,1.4834 v 0.1572 c 0,0.5332 -0.0774,1.0277 -0.2324,1.4834 -0.1549,0.4557 -0.3805,0.8545 -0.6767,1.1963 -0.2963,0.3372 -0.6563,0.6015 -1.0801,0.7929 -0.4238,0.1869 -0.9046,0.2803 -1.4424,0.2803 -0.5423,0 -1.0277,-0.0934 -1.4561,-0.2803 -0.4238,-0.1914 -0.7838,-0.4557 -1.08,-0.7929 -0.2963,-0.3418 -0.5218,-0.7406 -0.6768,-1.1963 -0.1549,-0.4557 -0.2324,-0.9502 -0.2324,-1.4834 z m 1.6474,-0.1572 v 0.1572 c 0,0.3327 0.0342,0.6471 0.1026,0.9433 0.0683,0.2963 0.1754,0.556 0.3213,0.7793 0.1458,0.2234 0.3327,0.3988 0.5605,0.5264 0.2279,0.1276 0.499,0.1914 0.8135,0.1914 0.3053,0 0.5697,-0.0638 0.793,-0.1914 0.2278,-0.1276 0.4147,-0.303 0.5605,-0.5264 0.1458,-0.2233 0.2529,-0.483 0.3213,-0.7793 0.0729,-0.2962 0.1094,-0.6106 0.1094,-0.9433 v -0.1572 c 0,-0.3282 -0.0365,-0.6381 -0.1094,-0.9297 -0.0684,-0.2962 -0.1777,-0.5583 -0.3281,-0.7862 -0.1459,-0.2278 -0.3327,-0.4056 -0.5606,-0.5332 -0.2233,-0.1321 -0.4899,-0.1982 -0.7998,-0.1982 -0.3099,0 -0.5787,0.0661 -0.8066,0.1982 -0.2233,0.1276 -0.4079,0.3054 -0.5537,0.5332 -0.1459,0.2279 -0.253,0.49 -0.3213,0.7862 -0.0684,0.2916 -0.1026,0.6015 -0.1026,0.9297 z m 8.2442,-2.044 V 25 h -1.6475 v -7.3965 h 1.5518 z m -0.294,1.8457 -0.5332,-0.0068 c 0.0046,-0.5241 0.0775,-1.0049 0.2188,-1.4424 0.1458,-0.4375 0.3463,-0.8135 0.6016,-1.1279 0.2597,-0.3145 0.5696,-0.556 0.9296,-0.7246 0.3601,-0.1732 0.7611,-0.2598 1.2032,-0.2598 0.3554,0 0.6767,0.0501 0.9638,0.1504 0.2917,0.0957 0.5401,0.2529 0.7451,0.4717 0.2097,0.2187 0.3692,0.5035 0.4786,0.8545 0.1093,0.3463 0.164,0.7724 0.164,1.2783 V 25 h -1.6543 v -4.7852 c 0,-0.3554 -0.0524,-0.6357 -0.1572,-0.8408 -0.1003,-0.2096 -0.2484,-0.3577 -0.4443,-0.4443 -0.1914,-0.0912 -0.4307,-0.1367 -0.7178,-0.1367 -0.2826,0 -0.5355,0.0592 -0.7588,0.1777 -0.2233,0.1185 -0.4124,0.2803 -0.5674,0.4854 -0.1504,0.205 -0.2666,0.442 -0.3486,0.7109 -0.082,0.2689 -0.1231,0.556 -0.1231,0.8613 z m 9.8438,-3.4248 v 1.2031 H 66.9512 V 17.6035 Z M 68.1543,15.792 h 1.6475 v 7.1641 c 0,0.2278 0.0319,0.4033 0.0957,0.5263 0.0683,0.1185 0.1617,0.1983 0.2802,0.2393 0.1185,0.041 0.2575,0.0615 0.417,0.0615 0.114,0 0.2233,-0.0068 0.3282,-0.0205 0.1048,-0.0137 0.1891,-0.0273 0.2529,-0.041 l 0.0068,1.2578 c -0.1367,0.041 -0.2962,0.0775 -0.4785,0.1094 -0.1777,0.0319 -0.3828,0.0478 -0.6152,0.0478 -0.3783,0 -0.7132,-0.0661 -1.0049,-0.1982 -0.2917,-0.1367 -0.5195,-0.3578 -0.6836,-0.6631 -0.1641,-0.3053 -0.2461,-0.7109 -0.2461,-1.2168 z m 6.0019,1.8115 V 25 H 72.502 v -7.3965 z m -1.7636,-1.9414 c 0,-0.2506 0.082,-0.458 0.2461,-0.6221 0.1686,-0.1686 0.401,-0.2529 0.6972,-0.2529 0.2917,0 0.5218,0.0843 0.6905,0.2529 0.1686,0.1641 0.2529,0.3715 0.2529,0.6221 0,0.2461 -0.0843,0.4512 -0.2529,0.6152 -0.1687,0.1641 -0.3988,0.2461 -0.6905,0.2461 -0.2962,0 -0.5286,-0.082 -0.6972,-0.2461 -0.1641,-0.164 -0.2461,-0.3691 -0.2461,-0.6152 z m 5.2021,3.5205 V 25 h -1.6474 v -7.3965 h 1.5517 z m -0.2939,1.8457 -0.5332,-0.0068 c 0.0045,-0.5241 0.0775,-1.0049 0.2187,-1.4424 0.1459,-0.4375 0.3464,-0.8135 0.6016,-1.1279 0.2598,-0.3145 0.5697,-0.556 0.9297,-0.7246 0.36,-0.1732 0.761,-0.2598 1.2031,-0.2598 0.3555,0 0.6768,0.0501 0.9639,0.1504 0.2916,0.0957 0.54,0.2529 0.7451,0.4717 0.2096,0.2187 0.3691,0.5035 0.4785,0.8545 0.1094,0.3463 0.1641,0.7724 0.1641,1.2783 V 25 H 80.418 v -4.7852 c 0,-0.3554 -0.0524,-0.6357 -0.1573,-0.8408 -0.1002,-0.2096 -0.2483,-0.3577 -0.4443,-0.4443 -0.1914,-0.0912 -0.4307,-0.1367 -0.7178,-0.1367 -0.2825,0 -0.5354,0.0592 -0.7588,0.1777 -0.2233,0.1185 -0.4124,0.2803 -0.5673,0.4854 -0.1504,0.205 -0.2666,0.442 -0.3487,0.7109 -0.082,0.2689 -0.123,0.556 -0.123,0.8613 z m 10.9033,2.2285 v -5.6533 h 1.6543 V 25 h -1.5586 z m 0.2324,-1.538 0.5537,-0.0137 c 0,0.4967 -0.0547,0.9547 -0.164,1.374 -0.1094,0.4147 -0.278,0.777 -0.5059,1.0869 -0.2279,0.3054 -0.5195,0.5446 -0.875,0.7178 -0.3555,0.1686 -0.7816,0.2529 -1.2783,0.2529 -0.36,0 -0.6904,-0.0524 -0.9912,-0.1572 -0.3008,-0.1048 -0.5606,-0.2666 -0.7793,-0.4854 -0.2142,-0.2187 -0.3805,-0.5035 -0.499,-0.8545 -0.1185,-0.3509 -0.1778,-0.7701 -0.1778,-1.2578 v -4.7783 h 1.6475 v 4.792 c 0,0.2689 0.0319,0.4945 0.0957,0.6768 0.0638,0.1777 0.1504,0.3213 0.2598,0.4306 0.1093,0.1094 0.2369,0.1869 0.3828,0.2325 0.1458,0.0455 0.3007,0.0683 0.4648,0.0683 0.4694,0 0.8386,-0.0911 1.1074,-0.2734 0.2735,-0.1869 0.4672,-0.4375 0.5811,-0.752 0.1185,-0.3144 0.1777,-0.6676 0.1777,-1.0595 z m 6.3711,3.4179 c -0.5469,0 -1.0413,-0.0888 -1.4834,-0.2666 -0.4375,-0.1823 -0.8112,-0.4352 -1.1211,-0.7588 -0.3053,-0.3235 -0.54,-0.7041 -0.7041,-1.1416 -0.164,-0.4375 -0.2461,-0.9092 -0.2461,-1.415 v -0.2735 c 0,-0.5787 0.0843,-1.1028 0.253,-1.5722 0.1686,-0.4694 0.4033,-0.8705 0.7041,-1.2031 0.3007,-0.3373 0.6562,-0.5948 1.0664,-0.7725 0.4101,-0.1777 0.8545,-0.2666 1.333,-0.2666 0.5286,0 0.9912,0.0889 1.3877,0.2666 0.3965,0.1777 0.7246,0.4284 0.9843,0.752 0.2644,0.319 0.4603,0.6995 0.5879,1.1416 0.1322,0.442 0.1983,0.9296 0.1983,1.4628 v 0.7041 h -5.7149 v -1.1826 h 4.0879 v -0.1299 c -0.0091,-0.2962 -0.0683,-0.5742 -0.1777,-0.8339 -0.1048,-0.2598 -0.2666,-0.4694 -0.4854,-0.6289 -0.2187,-0.1596 -0.5104,-0.2393 -0.875,-0.2393 -0.2734,0 -0.5172,0.0592 -0.7314,0.1777 -0.2096,0.114 -0.3851,0.2803 -0.5264,0.4991 -0.1412,0.2187 -0.2506,0.483 -0.3281,0.7929 -0.0729,0.3054 -0.1094,0.6494 -0.1094,1.0322 v 0.2735 c 0,0.3236 0.0433,0.6243 0.1299,0.9023 0.0912,0.2735 0.2233,0.5127 0.3965,0.7178 0.1732,0.2051 0.3828,0.3669 0.6289,0.4854 0.2461,0.1139 0.5264,0.1709 0.8408,0.1709 0.3965,0 0.7497,-0.0798 1.0596,-0.2393 0.3099,-0.1595 0.5788,-0.3851 0.8066,-0.6768 l 0.8682,0.8409 c -0.1595,0.2324 -0.3669,0.4557 -0.6221,0.6699 -0.2552,0.2096 -0.5674,0.3805 -0.9365,0.5127 -0.3646,0.1321 -0.7884,0.1982 -1.2715,0.1982 z m 9.7414,-1.7773 1.709,-5.7559 h 1.053 L 107.023,19.3262 105.301,25 h -0.944 z m -1.005,-5.7559 1.333,5.7832 0.109,1.6133 h -1.052 l -2.003,-7.3965 z m 5.366,5.7149 1.292,-5.7149 h 1.607 L 109.812,25 h -1.052 z m -1.422,-5.7149 1.689,5.6875 0.212,1.709 h -0.944 l -1.743,-5.6807 -0.287,-1.7158 z m 7.205,0 V 25 h -1.654 v -7.3965 z m -1.763,-1.9414 c 0,-0.2506 0.082,-0.458 0.246,-0.6221 0.168,-0.1686 0.401,-0.2529 0.697,-0.2529 0.292,0 0.522,0.0843 0.69,0.2529 0.169,0.1641 0.253,0.3715 0.253,0.6221 0,0.2461 -0.084,0.4512 -0.253,0.6152 -0.168,0.1641 -0.398,0.2461 -0.69,0.2461 -0.296,0 -0.529,-0.082 -0.697,-0.2461 -0.164,-0.164 -0.246,-0.3691 -0.246,-0.6152 z m 6.959,1.9414 v 1.2031 h -4.17 v -1.2031 z m -2.967,-1.8115 h 1.647 v 7.1641 c 0,0.2278 0.032,0.4033 0.096,0.5263 0.068,0.1185 0.162,0.1983 0.28,0.2393 0.119,0.041 0.258,0.0615 0.417,0.0615 0.114,0 0.224,-0.0068 0.328,-0.0205 0.105,-0.0137 0.19,-0.0273 0.253,-0.041 l 0.007,1.2578 c -0.137,0.041 -0.296,0.0775 -0.478,0.1094 -0.178,0.0319 -0.383,0.0478 -0.616,0.0478 -0.378,0 -0.713,-0.0661 -1.004,-0.1982 -0.292,-0.1367 -0.52,-0.3578 -0.684,-0.6631 -0.164,-0.3053 -0.246,-0.7109 -0.246,-1.2168 z M 122.787,14.5 V 25 h -1.641 V 14.5 Z m -0.287,6.5283 -0.533,-0.0068 c 0.004,-0.5104 0.075,-0.9821 0.212,-1.4151 0.141,-0.4329 0.337,-0.8089 0.588,-1.1279 0.255,-0.3236 0.56,-0.5719 0.916,-0.7451 0.355,-0.1777 0.749,-0.2666 1.182,-0.2666 0.365,0 0.693,0.0501 0.985,0.1504 0.296,0.1002 0.551,0.262 0.765,0.4853 0.214,0.2188 0.376,0.5059 0.486,0.8614 0.114,0.3509 0.17,0.7793 0.17,1.2851 V 25 h -1.654 v -4.7646 c 0,-0.3555 -0.052,-0.6381 -0.157,-0.8477 -0.1,-0.2096 -0.248,-0.36 -0.444,-0.4512 -0.196,-0.0957 -0.436,-0.1435 -0.718,-0.1435 -0.296,0 -0.558,0.0592 -0.786,0.1777 -0.224,0.1185 -0.41,0.2803 -0.561,0.4854 -0.15,0.205 -0.264,0.442 -0.342,0.7109 -0.073,0.2689 -0.109,0.556 -0.109,0.8613 z m 17.732,-1.1142 v 3.8007 c -0.141,0.1869 -0.362,0.392 -0.663,0.6153 -0.296,0.2187 -0.69,0.4079 -1.182,0.5674 -0.492,0.1595 -1.105,0.2392 -1.839,0.2392 -0.624,0 -1.196,-0.1048 -1.716,-0.3144 -0.52,-0.2142 -0.968,-0.5264 -1.347,-0.9366 -0.373,-0.4101 -0.663,-0.9091 -0.868,-1.497 -0.205,-0.5925 -0.307,-1.267 -0.307,-2.0235 v -0.6904 c 0,-0.7519 0.093,-1.4219 0.28,-2.0098 0.191,-0.5924 0.465,-1.0937 0.82,-1.5039 0.356,-0.4101 0.784,-0.72 1.285,-0.9297 0.506,-0.2141 1.078,-0.3212 1.716,-0.3212 0.816,0 1.49,0.1367 2.024,0.4101 0.537,0.2689 0.952,0.6426 1.244,1.1211 0.291,0.4785 0.476,1.0254 0.553,1.6406 h -1.681 c -0.055,-0.3463 -0.162,-0.6562 -0.322,-0.9297 -0.154,-0.2734 -0.378,-0.4876 -0.669,-0.6425 -0.288,-0.1595 -0.661,-0.2393 -1.122,-0.2393 -0.396,0 -0.745,0.0752 -1.045,0.2256 -0.301,0.1504 -0.552,0.3714 -0.752,0.6631 -0.196,0.2916 -0.344,0.6471 -0.445,1.0664 -0.1,0.4193 -0.15,0.8978 -0.15,1.4355 v 0.7041 c 0,0.5469 0.057,1.0323 0.171,1.4561 0.118,0.4238 0.287,0.7816 0.506,1.0732 0.223,0.2917 0.494,0.5127 0.813,0.6631 0.319,0.1459 0.679,0.2188 1.08,0.2188 0.392,0 0.713,-0.0319 0.964,-0.0957 0.251,-0.0684 0.449,-0.1481 0.595,-0.2393 0.15,-0.0957 0.266,-0.1868 0.348,-0.2734 v -1.9756 h -2.071 v -1.2783 z m 1.422,1.4697 v -0.1572 c 0,-0.5332 0.078,-1.0277 0.233,-1.4834 0.155,-0.4603 0.378,-0.8591 0.67,-1.1963 0.296,-0.3418 0.656,-0.6061 1.08,-0.793 0.428,-0.1914 0.911,-0.2871 1.449,-0.2871 0.542,0 1.025,0.0957 1.449,0.2871 0.429,0.1869 0.791,0.4512 1.087,0.793 0.296,0.3372 0.522,0.736 0.677,1.1963 0.155,0.4557 0.232,0.9502 0.232,1.4834 v 0.1572 c 0,0.5332 -0.077,1.0277 -0.232,1.4834 -0.155,0.4557 -0.381,0.8545 -0.677,1.1963 -0.296,0.3372 -0.656,0.6015 -1.08,0.7929 -0.424,0.1869 -0.905,0.2803 -1.442,0.2803 -0.543,0 -1.028,-0.0934 -1.456,-0.2803 -0.424,-0.1914 -0.784,-0.4557 -1.081,-0.7929 -0.296,-0.3418 -0.521,-0.7406 -0.676,-1.1963 -0.155,-0.4557 -0.233,-0.9502 -0.233,-1.4834 z m 1.648,-0.1572 v 0.1572 c 0,0.3327 0.034,0.6471 0.102,0.9433 0.069,0.2963 0.176,0.556 0.322,0.7793 0.145,0.2234 0.332,0.3988 0.56,0.5264 0.228,0.1276 0.499,0.1914 0.814,0.1914 0.305,0 0.569,-0.0638 0.793,-0.1914 0.227,-0.1276 0.414,-0.303 0.56,-0.5264 0.146,-0.2233 0.253,-0.483 0.321,-0.7793 0.073,-0.2962 0.11,-0.6106 0.11,-0.9433 v -0.1572 c 0,-0.3282 -0.037,-0.6381 -0.11,-0.9297 -0.068,-0.2962 -0.177,-0.5583 -0.328,-0.7862 -0.146,-0.2278 -0.332,-0.4056 -0.56,-0.5332 -0.224,-0.1321 -0.49,-0.1982 -0.8,-0.1982 -0.31,0 -0.579,0.0661 -0.807,0.1982 -0.223,0.1276 -0.408,0.3054 -0.553,0.5332 -0.146,0.2279 -0.253,0.49 -0.322,0.7862 -0.068,0.2916 -0.102,0.6015 -0.102,0.9297 z m 6.296,0.1572 v -0.1572 c 0,-0.5332 0.077,-1.0277 0.232,-1.4834 0.155,-0.4603 0.378,-0.8591 0.67,-1.1963 0.296,-0.3418 0.656,-0.6061 1.08,-0.793 0.428,-0.1914 0.912,-0.2871 1.449,-0.2871 0.543,0 1.026,0.0957 1.45,0.2871 0.428,0.1869 0.79,0.4512 1.086,0.793 0.297,0.3372 0.522,0.736 0.677,1.1963 0.155,0.4557 0.233,0.9502 0.233,1.4834 v 0.1572 c 0,0.5332 -0.078,1.0277 -0.233,1.4834 -0.155,0.4557 -0.38,0.8545 -0.677,1.1963 -0.296,0.3372 -0.656,0.6015 -1.08,0.7929 -0.423,0.1869 -0.904,0.2803 -1.442,0.2803 -0.542,0 -1.028,-0.0934 -1.456,-0.2803 -0.424,-0.1914 -0.784,-0.4557 -1.08,-0.7929 -0.296,-0.3418 -0.522,-0.7406 -0.677,-1.1963 -0.155,-0.4557 -0.232,-0.9502 -0.232,-1.4834 z m 1.647,-0.1572 v 0.1572 c 0,0.3327 0.034,0.6471 0.103,0.9433 0.068,0.2963 0.175,0.556 0.321,0.7793 0.146,0.2234 0.333,0.3988 0.56,0.5264 0.228,0.1276 0.5,0.1914 0.814,0.1914 0.305,0 0.57,-0.0638 0.793,-0.1914 0.228,-0.1276 0.415,-0.303 0.56,-0.5264 0.146,-0.2233 0.253,-0.483 0.322,-0.7793 0.073,-0.2962 0.109,-0.6106 0.109,-0.9433 v -0.1572 c 0,-0.3282 -0.036,-0.6381 -0.109,-0.9297 -0.069,-0.2962 -0.178,-0.5583 -0.328,-0.7862 -0.146,-0.2278 -0.333,-0.4056 -0.561,-0.5332 -0.223,-0.1321 -0.49,-0.1982 -0.8,-0.1982 -0.31,0 -0.578,0.0661 -0.806,0.1982 -0.224,0.1276 -0.408,0.3054 -0.554,0.5332 -0.146,0.2279 -0.253,0.49 -0.321,0.7862 -0.069,0.2916 -0.103,0.6015 -0.103,0.9297 z m 11.348,-3.6231 h 1.497 v 7.1914 c 0,0.6654 -0.141,1.2305 -0.424,1.6953 -0.283,0.4649 -0.677,0.8181 -1.183,1.0596 -0.505,0.2461 -1.091,0.3691 -1.756,0.3691 -0.283,0 -0.597,-0.041 -0.944,-0.123 -0.342,-0.082 -0.674,-0.2142 -0.998,-0.3965 -0.319,-0.1777 -0.585,-0.4124 -0.8,-0.7041 l 0.773,-0.9707 c 0.264,0.3145 0.556,0.5446 0.875,0.6904 0.319,0.1459 0.654,0.2188 1.005,0.2188 0.378,0 0.699,-0.0706 0.964,-0.2119 0.268,-0.1367 0.476,-0.3395 0.622,-0.6084 0.145,-0.2689 0.218,-0.597 0.218,-0.9844 v -5.5508 z m -5.025,3.7803 v -0.1436 c 0,-0.5605 0.069,-1.0709 0.205,-1.5312 0.137,-0.4649 0.333,-0.8636 0.588,-1.1963 0.256,-0.3372 0.565,-0.5947 0.93,-0.7725 0.365,-0.1823 0.777,-0.2734 1.237,-0.2734 0.479,0 0.887,0.0866 1.224,0.2598 0.342,0.1731 0.627,0.4215 0.854,0.7451 0.228,0.319 0.406,0.7018 0.534,1.1484 0.132,0.4421 0.23,0.9343 0.294,1.4766 v 0.458 c -0.06,0.5286 -0.16,1.0117 -0.301,1.4492 -0.141,0.4375 -0.328,0.8158 -0.561,1.1348 -0.232,0.319 -0.519,0.5651 -0.861,0.7383 -0.337,0.1731 -0.736,0.2597 -1.196,0.2597 -0.452,0 -0.859,-0.0934 -1.224,-0.2803 -0.36,-0.1868 -0.67,-0.4488 -0.93,-0.7861 -0.255,-0.3372 -0.451,-0.7337 -0.588,-1.1894 -0.136,-0.4603 -0.205,-0.9594 -0.205,-1.4971 z m 1.648,-0.1436 v 0.1436 c 0,0.3372 0.032,0.6517 0.096,0.9433 0.068,0.2917 0.17,0.5492 0.307,0.7725 0.141,0.2188 0.319,0.3919 0.533,0.5195 0.219,0.1231 0.477,0.1846 0.773,0.1846 0.387,0 0.704,-0.082 0.95,-0.2461 0.251,-0.164 0.442,-0.3851 0.574,-0.6631 0.137,-0.2825 0.233,-0.597 0.287,-0.9433 v -1.2373 c -0.027,-0.2689 -0.084,-0.5196 -0.171,-0.752 -0.082,-0.2324 -0.193,-0.4352 -0.335,-0.6084 -0.141,-0.1777 -0.319,-0.3144 -0.533,-0.4101 -0.214,-0.1003 -0.467,-0.1504 -0.759,-0.1504 -0.296,0 -0.553,0.0638 -0.772,0.1914 -0.219,0.1276 -0.399,0.303 -0.54,0.5263 -0.137,0.2233 -0.239,0.4831 -0.308,0.7793 -0.068,0.2963 -0.102,0.613 -0.102,0.9502 z M 167.562,14.5 V 25 h -1.654 V 14.5 Z m 5.066,10.6367 c -0.547,0 -1.041,-0.0888 -1.483,-0.2666 -0.438,-0.1823 -0.812,-0.4352 -1.122,-0.7588 -0.305,-0.3235 -0.54,-0.7041 -0.704,-1.1416 -0.164,-0.4375 -0.246,-0.9092 -0.246,-1.415 v -0.2735 c 0,-0.5787 0.085,-1.1028 0.253,-1.5722 0.169,-0.4694 0.403,-0.8705 0.704,-1.2031 0.301,-0.3373 0.657,-0.5948 1.067,-0.7725 0.41,-0.1777 0.854,-0.2666 1.333,-0.2666 0.528,0 0.991,0.0889 1.387,0.2666 0.397,0.1777 0.725,0.4284 0.985,0.752 0.264,0.319 0.46,0.6995 0.588,1.1416 0.132,0.442 0.198,0.9296 0.198,1.4628 v 0.7041 h -5.715 v -1.1826 h 4.088 v -0.1299 c -0.009,-0.2962 -0.068,-0.5742 -0.178,-0.8339 -0.105,-0.2598 -0.266,-0.4694 -0.485,-0.6289 -0.219,-0.1596 -0.511,-0.2393 -0.875,-0.2393 -0.274,0 -0.517,0.0592 -0.732,0.1777 -0.209,0.114 -0.385,0.2803 -0.526,0.4991 -0.141,0.2187 -0.251,0.483 -0.328,0.7929 -0.073,0.3054 -0.109,0.6494 -0.109,1.0322 v 0.2735 c 0,0.3236 0.043,0.6243 0.129,0.9023 0.092,0.2735 0.224,0.5127 0.397,0.7178 0.173,0.2051 0.383,0.3669 0.629,0.4854 0.246,0.1139 0.526,0.1709 0.841,0.1709 0.396,0 0.749,-0.0798 1.059,-0.2393 0.31,-0.1595 0.579,-0.3851 0.807,-0.6768 l 0.868,0.8409 c -0.159,0.2324 -0.367,0.4557 -0.622,0.6699 -0.255,0.2096 -0.567,0.3805 -0.937,0.5127 -0.364,0.1321 -0.788,0.1982 -1.271,0.1982 z"
         fill="#1f1f1f"
         id="path5" /><rect
         x="0.5"
         y="0.5"
         width="188"
         height="39"
         rx="3.5"
         stroke="#747775"
         id="rect5" /></g></g></svg>
