<?xml version="1.0" encoding="UTF-8" standalone="no"?>
<!-- Created with Inkscape (http://www.inkscape.org/) -->

<svg
   width="18.851562mm"
   height="18.851562mm"
   viewBox="0 0 18.851563 18.851563"
   version="1.1"
   id="svg1"
   inkscape:export-filename="subtelogo.png"
   inkscape:export-xdpi="410.49924"
   inkscape:export-ydpi="410.49924"
   inkscape:version="1.4.3 (0d15f75042, 2025-12-25)"
   sodipodi:docname="favicon.svg"
   xmlns:inkscape="http://www.inkscape.org/namespaces/inkscape"
   xmlns:sodipodi="http://sodipodi.sourceforge.net/DTD/sodipodi-0.dtd"
   xmlns="http://www.w3.org/2000/svg"
   xmlns:svg="http://www.w3.org/2000/svg">
  <sodipodi:namedview
     id="namedview1"
     pagecolor="#ffffff"
     bordercolor="#000000"
     borderopacity="0.25"
     inkscape:showpageshadow="2"
     inkscape:pageopacity="0.0"
     inkscape:pagecheckerboard="0"
     inkscape:deskcolor="#d1d1d1"
     inkscape:document-units="mm"
     inkscape:export-bgcolor="#121212ff"
     inkscape:zoom="5.8582491"
     inkscape:cx="8.3642739"
     inkscape:cy="44.552561"
     inkscape:window-width="1920"
     inkscape:window-height="1008"
     inkscape:window-x="0"
     inkscape:window-y="0"
     inkscape:window-maximized="1"
     inkscape:current-layer="layer1" />
  <defs
     id="defs1" />
  <g
     inkscape:label="Layer 1"
     inkscape:groupmode="layer"
     id="layer1"
     transform="translate(-6.7664413,-6.639973)">
    <path
       d="m 7.2129257,13.138801 q -0.4464844,-0.446484 -0.4464844,-1.041797 0,-0.595312 0.4464844,-1.041797 0.4464844,-0.446484 1.0417969,-0.446484 0.5953125,0 1.0417968,0.446484 0.4464844,0.446485 0.4464844,1.041797 0,0.595313 -0.4464844,1.041797 -0.4464843,0.446484 -1.0417968,0.446484 -0.5953125,0 -1.0417969,-0.446484 z M 23.087925,9.1700511 q -0.446484,-0.4464844 -0.446484,-1.0417969 0,-0.5953125 0.446484,-1.0417969 0.446485,-0.4464843 1.041797,-0.4464843 0.595313,0 1.041797,0.4464843 0.446485,0.4464844 0.446485,1.0417969 0,0.5953125 -0.446485,1.0417969 -0.446484,0.4464843 -1.041797,0.4464843 -0.595312,0 -1.041797,-0.4464843 z m -3.968749,0 q -0.446485,-0.4464844 -0.446485,-1.0417969 0,-0.5953125 0.446485,-1.0417969 0.446484,-0.4464843 1.041796,-0.4464843 0.595313,0 1.041797,0.4464843 0.446485,0.4464844 0.446485,1.0417969 0,0.5953125 -0.446485,1.0417969 -0.446484,0.4464843 -1.041797,0.4464843 -0.595312,0 -1.041796,-0.4464843 z m -3.96875,0 q -0.446485,-0.4464844 -0.446485,-1.0417969 0,-0.5953125 0.446485,-1.0417969 0.446484,-0.4464843 1.041796,-0.4464843 0.595313,0 1.041797,0.4464843 0.446485,0.4464844 0.446485,1.0417969 0,0.5953125 -0.446485,1.0417969 -0.446484,0.4464843 -1.041797,0.4464843 -0.595312,0 -1.041796,-0.4464843 z m -3.96875,0 q -0.446485,-0.4464844 -0.446485,-1.0417969 0,-0.5953125 0.446485,-1.0417969 0.446484,-0.4464843 1.041797,-0.4464843 0.595312,0 1.041796,0.4464843 0.446485,0.4464844 0.446485,1.0417969 0,0.5953125 -0.446485,1.0417969 -0.446484,0.4464843 -1.041796,0.4464843 -0.595313,0 -1.041797,-0.4464843 z m 7.9375,7.9374999 q -0.446485,-0.446484 -0.446485,-1.041797 0,-0.595312 0.446485,-1.041797 0.446484,-0.446484 1.041796,-0.446484 0.595313,0 1.041797,0.446484 0.446485,0.446485 0.446485,1.041797 0,0.595313 -0.446485,1.041797 -0.446484,0.446484 -1.041797,0.446484 -0.595312,0 -1.041796,-0.446484 z m -3.96875,0 q -0.446485,-0.446484 -0.446485,-1.041797 0,-0.595312 0.446485,-1.041797 0.446484,-0.446484 1.041796,-0.446484 0.595313,0 1.041797,0.446484 0.446485,0.446485 0.446485,1.041797 0,0.595313 -0.446485,1.041797 -0.446484,0.446484 -1.041797,0.446484 -0.595312,0 -1.041796,-0.446484 z m -3.96875,0 q -0.446485,-0.446484 -0.446485,-1.041797 0,-0.595312 0.446485,-1.041797 0.446484,-0.446484 1.041797,-0.446484 0.595312,0 1.041796,0.446484 0.446485,0.446485 0.446485,1.041797 0,0.595313 -0.446485,1.041797 -0.446484,0.446484 -1.041796,0.446484 -0.595313,0 -1.041797,-0.446484 z m 11.906249,3.96875 q -0.446484,-0.446484 -0.446484,-1.041797 0,-0.595312 0.446484,-1.041797 0.446485,-0.446484 1.041797,-0.446484 0.595313,0 1.041797,0.446484 0.446485,0.446485 0.446485,1.041797 0,0.595313 -0.446485,1.041797 -0.446484,0.446484 -1.041797,0.446484 -0.595312,0 -1.041797,-0.446484 z m -3.968749,3.96875 q -0.446485,-0.446485 -0.446485,-1.041797 0,-0.595313 0.446485,-1.041797 0.446484,-0.446484 1.041796,-0.446484 0.595313,0 1.041797,0.446484 0.446485,0.446484 0.446485,1.041797 0,0.595312 -0.446485,1.041797 -0.446484,0.446484 -1.041797,0.446484 -0.595312,0 -1.041796,-0.446484 z m -3.96875,0 q -0.446485,-0.446485 -0.446485,-1.041797 0,-0.595313 0.446485,-1.041797 0.446484,-0.446484 1.041796,-0.446484 0.595313,0 1.041797,0.446484 0.446485,0.446484 0.446485,1.041797 0,0.595312 -0.446485,1.041797 -0.446484,0.446484 -1.041797,0.446484 -0.595312,0 -1.041796,-0.446484 z m -3.96875,0 q -0.446485,-0.446485 -0.446485,-1.041797 0,-0.595313 0.446485,-1.041797 0.446484,-0.446484 1.041797,-0.446484 0.595312,0 1.041796,0.446484 0.446485,0.446484 0.446485,1.041797 0,0.595312 -0.446485,1.041797 -0.446484,0.446484 -1.041796,0.446484 -0.595313,0 -1.041797,-0.446484 z m -3.9687503,0 q -0.4464844,-0.446485 -0.4464844,-1.041797 0,-0.595313 0.4464844,-1.041797 0.4464844,-0.446484 1.0417969,-0.446484 0.5953125,0 1.0417968,0.446484 0.4464844,0.446484 0.4464844,1.041797 0,0.595312 -0.4464844,1.041797 -0.4464843,0.446484 -1.0417968,0.446484 -0.5953125,0 -1.0417969,-0.446484 z"
       id="text1"
       style="font-size:50.8px;font-family:'Teleindicadores 1';-inkscape-font-specification:'Teleindicadores 1, ';letter-spacing:-10.5833px;word-spacing:0px;fill:#4da6ff;stroke-width:29.5275;stroke-linecap:square;stroke-miterlimit:7"
       aria-label="s" />
  </g>
</svg>
